ply
format ascii 1.0
comment created by MATLAB plywrite
element vertex 80
property float x
property float y
property float z
element face 120
property list uchar char vertex_indices
end_header
1.554015 0.000000 0.000000 
1.477956 0.480217 0.000000 
1.257224 0.913427 0.000000 
0.913427 1.257224 0.000000 
0.480217 1.477956 0.000000 
0.000000 1.554015 0.000000 
-0.480217 1.477956 0.000000 
-0.913427 1.257224 0.000000 
-1.257224 0.913427 0.000000 
-1.477956 0.480217 0.000000 
-1.554015 0.000000 0.000000 
-1.477956 -0.480217 0.000000 
-1.257224 -0.913427 0.000000 
-0.913427 -1.257224 0.000000 
-0.480217 -1.477956 0.000000 
-0.000000 -1.554015 0.000000 
0.480217 -1.477956 0.000000 
0.913427 -1.257224 0.000000 
1.257224 -0.913427 0.000000 
1.477956 -0.480217 0.000000 
1.554015 0.000000 100.000000 
1.477956 0.480217 100.000000 
1.257224 0.913427 100.000000 
0.913427 1.257224 100.000000 
0.480217 1.477956 100.000000 
0.000000 1.554015 100.000000 
-0.480217 1.477956 100.000000 
-0.913427 1.257224 100.000000 
-1.257224 0.913427 100.000000 
-1.477956 0.480217 100.000000 
-1.554015 0.000000 100.000000 
-1.477956 -0.480217 100.000000 
-1.257224 -0.913427 100.000000 
-0.913427 -1.257224 100.000000 
-0.480217 -1.477956 100.000000 
-0.000000 -1.554015 100.000000 
0.480217 -1.477956 100.000000 
0.913427 -1.257224 100.000000 
1.257224 -0.913427 100.000000 
1.477956 -0.480217 100.000000 
1.554015 -0.000000 200.000000 
1.477956 0.480217 200.000000 
1.257224 0.913427 200.000000 
0.913427 1.257224 200.000000 
0.480217 1.477956 200.000000 
0.000000 1.554015 200.000000 
-0.480217 1.477956 200.000000 
-0.913427 1.257224 200.000000 
-1.257224 0.913427 200.000000 
-1.477956 0.480217 200.000000 
-1.554015 -0.000000 200.000000 
-1.477956 -0.480217 200.000000 
-1.257224 -0.913427 200.000000 
-0.913427 -1.257224 200.000000 
-0.480217 -1.477956 200.000000 
-0.000000 -1.554015 200.000000 
0.480217 -1.477956 200.000000 
0.913427 -1.257224 200.000000 
1.257224 -0.913427 200.000000 
1.477956 -0.480217 200.000000 
1.554015 -0.000000 300.000000 
1.477956 0.480217 300.000000 
1.257224 0.913427 300.000000 
0.913427 1.257224 300.000000 
0.480217 1.477956 300.000000 
0.000000 1.554015 300.000000 
-0.480217 1.477956 300.000000 
-0.913427 1.257224 300.000000 
-1.257224 0.913427 300.000000 
-1.477956 0.480217 300.000000 
-1.554015 -0.000000 300.000000 
-1.477956 -0.480217 300.000000 
-1.257224 -0.913427 300.000000 
-0.913427 -1.257224 300.000000 
-0.480217 -1.477956 300.000000 
-0.000000 -1.554015 300.000000 
0.480217 -1.477956 300.000000 
0.913427 -1.257224 300.000000 
1.257224 -0.913427 300.000000 
1.477956 -0.480217 300.000000 
3 0 21 20 
3 0 1 21 
3 1 22 21 
3 1 2 22 
3 2 23 22 
3 2 3 23 
3 3 24 23 
3 3 4 24 
3 4 25 24 
3 4 5 25 
3 5 26 25 
3 5 6 26 
3 6 27 26 
3 6 7 27 
3 7 28 27 
3 7 8 28 
3 8 29 28 
3 8 9 29 
3 9 30 29 
3 9 10 30 
3 10 31 30 
3 10 11 31 
3 11 32 31 
3 11 12 32 
3 12 33 32 
3 12 13 33 
3 13 34 33 
3 13 14 34 
3 14 35 34 
3 14 15 35 
3 15 36 35 
3 15 16 36 
3 16 37 36 
3 16 17 37 
3 17 38 37 
3 17 18 38 
3 18 39 38 
3 18 19 39 
3 19 20 39 
3 19 0 20 
3 20 41 40 
3 20 21 41 
3 21 42 41 
3 21 22 42 
3 22 43 42 
3 22 23 43 
3 23 44 43 
3 23 24 44 
3 24 45 44 
3 24 25 45 
3 25 46 45 
3 25 26 46 
3 26 47 46 
3 26 27 47 
3 27 48 47 
3 27 28 48 
3 28 49 48 
3 28 29 49 
3 29 50 49 
3 29 30 50 
3 30 51 50 
3 30 31 51 
3 31 52 51 
3 31 32 52 
3 32 53 52 
3 32 33 53 
3 33 54 53 
3 33 34 54 
3 34 55 54 
3 34 35 55 
3 35 56 55 
3 35 36 56 
3 36 57 56 
3 36 37 57 
3 37 58 57 
3 37 38 58 
3 38 59 58 
3 38 39 59 
3 39 40 59 
3 39 20 40 
3 40 61 60 
3 40 41 61 
3 41 62 61 
3 41 42 62 
3 42 63 62 
3 42 43 63 
3 43 64 63 
3 43 44 64 
3 44 65 64 
3 44 45 65 
3 45 66 65 
3 45 46 66 
3 46 67 66 
3 46 47 67 
3 47 68 67 
3 47 48 68 
3 48 69 68 
3 48 49 69 
3 49 70 69 
3 49 50 70 
3 50 71 70 
3 50 51 71 
3 51 72 71 
3 51 52 72 
3 52 73 72 
3 52 53 73 
3 53 74 73 
3 53 54 74 
3 54 75 74 
3 54 55 75 
3 55 76 75 
3 55 56 76 
3 56 77 76 
3 56 57 77 
3 57 78 77 
3 57 58 78 
3 58 79 78 
3 58 59 79 
3 59 60 79 
3 59 40 60 
